<?xml version="1.0" encoding="UTF-8" standalone="no"?>
<!-- Created with Inkscape (http://www.inkscape.org/) -->

<svg
   xmlns:dc="http://purl.org/dc/elements/1.1/"
   xmlns:cc="http://creativecommons.org/ns#"
   xmlns:rdf="http://www.w3.org/1999/02/22-rdf-syntax-ns#"
   xmlns:svg="http://www.w3.org/2000/svg"
   xmlns="http://www.w3.org/2000/svg"
   xmlns:sodipodi="http://sodipodi.sourceforge.net/DTD/sodipodi-0.dtd"
   xmlns:inkscape="http://www.inkscape.org/namespaces/inkscape"
   width="744.09448819"
   height="1052.3622047"
   id="svg2"
   version="1.1"
   inkscape:version="0.48.2 r9819"
   sodipodi:docname="New document 1">
  <defs
     id="defs4">
    <filter
       inkscape:collect="always"
       id="filter3784"
       inkscape:label="Dark and Glow"
       inkscape:menu="Shadows and Glows"
       inkscape:menu-tooltip="Darkens the edge with an inner blur and adds a flexible glow"
       color-interpolation-filters="sRGB"
       y="-0.25"
       height="1.5">
      <feGaussianBlur
         inkscape:collect="always"
         stdDeviation="0.60299973"
         id="feGaussianBlur3786"
         result="fbSourceGraphic" />
      <feColorMatrix
         result="fbSourceGraphicAlpha"
         in="fbSourceGraphic"
         values="0 0 0 -1 0 0 0 0 -1 0 0 0 0 -1 0 0 0 0 1 0"
         id="feColorMatrix3840" />
      <feGaussianBlur
         id="feGaussianBlur3842"
         stdDeviation="12"
         in="fbSourceGraphicAlpha"
         result="result1" />
      <feComposite
         in2="result1"
         id="feComposite3844"
         operator="arithmetic"
         k2="3.5"
         k4="-2"
         result="result2" />
      <feComposite
         in2="result2"
         id="feComposite3846"
         in="fbSourceGraphic"
         operator="out"
         result="result91" />
      <feBlend
         in2="result91"
         id="feBlend3848"
         mode="darken"
         result="fbSourceGraphic" />
      <feColorMatrix
         result="fbSourceGraphicAlpha"
         in="fbSourceGraphic"
         values="0 0 0 -1 0 0 0 0 -1 0 0 0 0 -1 0 0 0 0 1 0"
         id="feColorMatrix3882" />
      <feGaussianBlur
         id="feGaussianBlur3884"
         stdDeviation="5"
         result="result6"
         in="fbSourceGraphic" />
      <feComposite
         id="feComposite3886"
         in2="result6"
         result="result8"
         in="fbSourceGraphic"
         operator="atop" />
      <feComposite
         id="feComposite3888"
         in2="fbSourceGraphicAlpha"
         result="result9"
         operator="over"
         in="result8" />
      <feColorMatrix
         id="feColorMatrix3890"
         values="1 0 0 0 0 0 1 0 0 0 0 0 1 0 0 0 0 0 1 0 "
         result="result10" />
      <feBlend
         id="feBlend3892"
         in2="result6"
         in="result10"
         mode="normal" />
    </filter>
  </defs>
  <sodipodi:namedview
     id="base"
     pagecolor="#ffffff"
     bordercolor="#666666"
     borderopacity="1.0"
     inkscape:pageopacity="0.0"
     inkscape:pageshadow="2"
     inkscape:zoom="2.8"
     inkscape:cx="381.58025"
     inkscape:cy="680.23843"
     inkscape:document-units="px"
     inkscape:current-layer="text2985"
     showgrid="false"
     inkscape:window-width="1280"
     inkscape:window-height="776"
     inkscape:window-x="0"
     inkscape:window-y="24"
     inkscape:window-maximized="1" />
  <metadata
     id="metadata7">
    <rdf:RDF>
      <cc:Work
         rdf:about="">
        <dc:format>image/svg+xml</dc:format>
        <dc:type
           rdf:resource="http://purl.org/dc/dcmitype/StillImage" />
        <dc:title></dc:title>
      </cc:Work>
    </rdf:RDF>
  </metadata>
  <g
     inkscape:label="Layer 1"
     inkscape:groupmode="layer"
     id="layer1">
    <g
       style="font-size:300px;font-style:normal;font-variant:normal;font-weight:normal;font-stretch:normal;line-height:125%;letter-spacing:0px;word-spacing:0px;fill:#009700;fill-opacity:1;stroke:none;font-family:Rachana;-inkscape-font-specification:Rachana"
       id="text2985"
       transform="matrix(1.3099274,0,0,1,-82.078861,-2.1428571)">
      <path
         d="m 343.42633,255.3421 c 18.74991,2e-4 33.49599,5.85957 44.23828,17.57813 7.22644,8.00799 10.83972,17.57829 10.83985,28.71093 -1.3e-4,13.86733 -6.64075,29.39466 -19.92188,46.58204 -2.34385,3.1251 -6.2501,7.91025 -11.71875,14.35546 -9.57039,12.10946 -15.82039,26.17195 -18.75,42.1875 -7e-5,6e-5 -0.19539,1.36724 -0.58594,4.10157 l -5.27343,0 c 0.39055,-15.42963 3.41789,-29.58977 9.08203,-42.48047 l 8.49609,-19.33594 c 7.42178,-16.99206 11.13272,-32.61704 11.13281,-46.875 -9e-5,-12.89045 -4.8829,-22.94904 -14.64843,-30.17578 -5.27352,-3.90606 -11.23054,-5.85918 -17.8711,-5.85938 -10.35161,2e-4 -18.55473,3.22285 -24.60937,9.66797 -2.5391,3.12518 -3.80863,6.15253 -3.8086,9.08203 -3e-5,1.75799 2.05075,5.27361 6.15235,10.54688 3.51558,4.49235 5.27339,8.39859 5.27343,11.71875 -4e-5,6.25015 -2.83207,10.15639 -8.49609,11.71875 -1.17191,0.39077 -2.44144,0.58608 -3.80859,0.58594 -9.57034,1.4e-4 -14.35549,-6.24986 -14.35547,-18.75 -2e-5,-15.2342 6.44528,-27.0506 19.33594,-35.44922 8.39838,-5.27324 18.164,-7.90996 29.29687,-7.91016 m 2.05078,173.14453 c 6.44524,3e-5 11.23039,3.02737 14.35547,9.08203 1.17179,2.34377 1.75773,4.78518 1.75781,7.32422 -8e-5,7.22657 -3.41805,12.01172 -10.2539,14.35547 -1.9532,0.78125 -4.00398,1.17187 -6.15235,1.17188 -7.42194,-1e-5 -12.4024,-3.22266 -14.9414,-9.66797 -0.586,-1.75781 -0.87896,-3.61327 -0.87891,-5.56641 -5e-5,-7.61716 3.2226,-12.79294 9.66797,-15.52734 1.95306,-0.78122 4.10149,-1.17185 6.44531,-1.17188"
         style="fill:#009700;stroke:#000000;stroke-opacity:1;filter:url(#filter3784);font-family:Rachana;-inkscape-font-specification:Rachana"
         id="path3758"
         inkscape:connector-curvature="0"
         transform="matrix(0.98725485,0,0,0.62307494,4.4180947,179.05763)"
         inkscape:export-filename="/home/wasser/Desktop/no_artwork.gif.png"
         inkscape:export-xdpi="47.720001"
         inkscape:export-ydpi="47.720001" />
    </g>
  </g>
</svg>
